<?xml version="1.0" encoding="UTF-8"?>
<!DOCTYPE svg PUBLIC "-//W3C//DTD SVG 1.1//EN" "http://www.w3.org/Graphics/SVG/1.1/DTD/svg11.dtd">
<!-- Creator: CorelDRAW -->
<svg xmlns="http://www.w3.org/2000/svg" xml:space="preserve" width="500px" height="500px" version="1.1" style="shape-rendering:geometricPrecision; text-rendering:geometricPrecision; image-rendering:optimizeQuality; fill-rule:evenodd; clip-rule:evenodd"
viewBox="0 0 500 500"
 xmlns:xlink="http://www.w3.org/1999/xlink"
 xmlns:xodm="http://www.corel.com/coreldraw/odm/2003">
 <defs>
  <style type="text/css">
   <![CDATA[
    .fil0 {fill:#8E24AA}
    .fil1 {fill:white;fill-rule:nonzero}
   ]]>
  </style>
 </defs>
 <g id="Слой_x0020_1">
  <metadata id="CorelCorpID_0Corel-Layer"/>
  <circle class="fil0" cx="249.39" cy="250.61" r="250"/>
  <path class="fil1" d="M167.55 132.35c10.78,0.22 21.84,0.78 33.16,1.66 11.33,0.88 22.52,2.54 33.58,4.97l-5.73 21.2c-9.42,-0.44 -19.84,-0.83 -31.26,-1.16 -11.43,-0.33 -22.44,-0.5 -33.04,-0.5 -8.17,0 -15.23,0.28 -21.18,0.83 -5.95,0.55 -10.99,1.88 -15.11,3.98 -4.13,2.09 -7.44,5.52 -9.93,10.27 -2.49,4.74 -4.48,11.31 -5.96,19.71 -2.22,12.58 -1.5,21.36 2.15,26.33 3.65,4.97 10.34,8.67 20.07,11.1l44.33 11.59c16.93,4.2 27.73,11.54 32.39,22.03 4.67,10.49 5.44,24.57 2.33,42.24 -2.34,13.25 -5.72,23.96 -10.14,32.13 -4.42,8.17 -10.11,14.41 -17.05,18.72 -6.94,4.3 -15.42,7.28 -25.43,8.94 -10.01,1.66 -21.64,2.48 -34.89,2.48 -7.51,0 -17.22,-0.33 -29.14,-0.99 -11.92,-0.66 -25.46,-2.43 -40.64,-5.3l5.79 -21.53c12.95,0.44 23.37,0.83 31.26,1.16 7.89,0.33 14.71,0.49 20.45,0.49 5.75,0 11.71,0 17.89,0 11.71,0 21.08,-0.88 28.13,-2.65 7.05,-1.76 12.42,-5.3 16.11,-10.6 3.7,-5.3 6.46,-13.14 8.29,-23.52 1.56,-8.83 1.77,-15.68 0.64,-20.53 -1.13,-4.86 -3.63,-8.56 -7.48,-11.1 -3.86,-2.54 -8.97,-4.58 -15.32,-6.13l-45.27 -11.93c-15.82,-4.19 -26.19,-11.48 -31.09,-21.86 -4.91,-10.38 -5.82,-24.29 -2.74,-41.74 2.33,-13.25 5.7,-23.9 10.1,-31.96 4.41,-8.06 10,-14.14 16.8,-18.22 6.79,-4.09 14.94,-6.79 24.45,-8.12 9.51,-1.33 20.67,-1.99 33.48,-1.99zm196.2 1.33c18.77,0 33.38,1.71 43.82,5.13 10.43,3.43 17.38,9.44 20.83,18.06 3.45,8.61 3.79,20.76 1.03,36.44 -2.88,16.34 -8.12,28.82 -15.71,37.43 -7.59,8.61 -18.35,13.58 -32.28,14.9l-0.23 1.33c16.73,1.55 27.55,7.51 32.45,17.89 4.91,10.38 5.75,24.73 2.51,43.06 -2.76,15.68 -7.33,27.83 -13.71,36.44 -6.38,8.61 -15.22,14.63 -26.54,18.05 -11.31,3.43 -25.69,5.14 -43.14,5.14 -13.03,0 -24.22,-0.06 -33.59,-0.17 -9.37,-0.11 -17.99,-0.38 -25.86,-0.83 -7.87,-0.44 -16.06,-0.99 -24.55,-1.65l8.73 -23.19c4.82,0.22 14,0.44 27.54,0.66 13.54,0.22 29.37,0.33 47.48,0.33 12.14,0 21.88,-1.05 29.21,-3.14 7.32,-2.1 12.98,-6.02 16.98,-11.76 3.99,-5.74 6.94,-14.03 8.85,-24.85 2.1,-11.92 2.17,-21.09 0.21,-27.49 -1.96,-6.41 -6.36,-10.93 -13.18,-13.58 -6.82,-2.65 -16.5,-4.09 -29.05,-4.31l-73.54 0 3.91 -22.19 73.21 0c11.08,-0.23 20.07,-1.38 26.95,-3.48 6.89,-2.1 12.26,-5.97 16.12,-11.6 3.87,-5.63 6.7,-13.52 8.49,-23.68 1.83,-10.38 1.68,-18.33 -0.44,-23.85 -2.11,-5.52 -6.59,-9.28 -13.41,-11.27 -6.83,-1.98 -16.43,-2.98 -28.79,-2.98 -10.83,0 -20.54,0 -29.15,0 -8.62,0 -16.19,0.06 -22.73,0.17 -6.53,0.11 -12.04,0.38 -16.54,0.83l-0.55 -23.19c7.89,-0.88 15.34,-1.49 22.35,-1.82 7.02,-0.33 14.68,-0.56 22.98,-0.67 8.3,-0.11 18.08,-0.16 29.34,-0.16zm-46.18 2.65l-40.3 228.57 -28.49 0 40.3 -228.57 28.49 0z"/>
 </g>
</svg>
