<?xml version="1.0" standalone="no"?>
<!DOCTYPE svg PUBLIC "-//W3C//DTD SVG 20010904//EN"
 "http://www.w3.org/TR/2001/REC-SVG-20010904/DTD/svg10.dtd">
<svg version="1.0" xmlns="http://www.w3.org/2000/svg"
 width="700.000000pt" height="700.000000pt" viewBox="0 0 700.000000 700.000000"
 preserveAspectRatio="xMidYMid meet">
<metadata>
Created by potrace 1.14, written by Peter Selinger 2001-2017
</metadata>
<g transform="translate(0.000000,700.000000) scale(0.100000,-0.100000)"
fill="#000000" stroke="none">
<path d="M3190 6979 c-604 -57 -1159 -253 -1645 -579 -336 -226 -667 -547
-903 -877 -317 -444 -524 -954 -613 -1514 -27 -168 -38 -695 -19 -874 74 -684
327 -1302 756 -1840 113 -141 388 -416 529 -529 526 -419 1124 -669 1795 -751
167 -20 629 -20 800 0 621 73 1195 299 1684 665 162 121 261 208 422 372 540
551 866 1228 971 2018 22 170 25 637 5 805 -100 812 -440 1521 -1001 2084
-558 561 -1256 902 -2053 1007 -145 19 -587 27 -728 13z m-650 -1839 c266 -14
398 -26 580 -56 85 -14 156 -27 157 -28 4 -4 -73 -285 -79 -292 -3 -3 -165 0
-359 7 -420 14 -823 7 -922 -15 -87 -19 -180 -69 -218 -117 -80 -101 -141
-317 -143 -504 -1 -70 4 -124 13 -149 27 -78 115 -150 235 -193 23 -7 205 -57
406 -109 410 -107 477 -131 580 -199 92 -61 150 -138 187 -248 26 -78 27 -92
27 -267 0 -163 -3 -200 -28 -315 -93 -444 -257 -656 -578 -749 -185 -53 -271
-61 -683 -60 -294 0 -414 4 -530 18 -151 17 -386 54 -394 62 -2 2 13 70 35
150 l39 146 280 -8 c460 -15 894 -10 1002 9 131 24 194 50 258 109 67 61 115
153 152 293 22 85 26 122 27 250 1 136 -1 154 -21 190 -57 106 -118 133 -565
250 -199 53 -392 105 -428 117 -164 52 -303 154 -363 265 -89 166 -95 445 -16
758 100 392 276 580 609 650 36 7 117 18 180 24 220 21 318 23 560 11z m2940
-34 c379 -58 529 -188 555 -481 12 -141 -24 -391 -80 -556 -99 -289 -265 -443
-534 -495 -111 -21 -111 -24 13 -47 103 -19 211 -67 273 -121 52 -46 108 -154
128 -251 30 -143 14 -395 -39 -604 -62 -245 -161 -410 -311 -516 -115 -82
-258 -130 -480 -161 -201 -28 -1183 -18 -1466 15 l-55 6 281 1594 c255 1452
282 1595 301 1601 20 8 305 28 469 34 50 2 259 2 465 0 281 -2 401 -6 480 -18z"/>
<path d="M4385 4748 c-61 -334 -181 -1035 -178 -1040 6 -12 606 -9 773 2 387
28 523 124 604 430 76 284 49 478 -79 559 -103 65 -243 81 -732 81 l-382 0 -6
-32z"/>
<path d="M4145 3378 c-10 -29 -206 -1161 -201 -1165 2 -2 172 -7 378 -10 621
-10 797 20 932 155 90 90 153 254 182 476 44 329 -36 470 -302 533 -94 22
-981 32 -989 11z"/>
</g>
</svg>
